<?xml version="1.0" standalone="no"?>
<!DOCTYPE svg PUBLIC "-//W3C//DTD SVG 20010904//EN" "http://www.w3.org/TR/2001/REC-SVG-20010904/DTD/svg10.dtd">
<!-- Created using Krita: https://krita.org -->
<svg xmlns="http://www.w3.org/2000/svg" 
    xmlns:xlink="http://www.w3.org/1999/xlink"
    xmlns:krita="http://krita.org/namespaces/svg/krita"
    xmlns:sodipodi="http://sodipodi.sourceforge.net/DTD/sodipodi-0.dtd"
    width="61.92pt"
    height="61.92pt"
    viewBox="0 0 61.92 61.92">
<defs/>
<path id="shape0" transform="matrix(0.48375 0 0 0.48375 1.91909932200479 8.90999965727026)" fill="#e0e0e0" stroke-opacity="0" stroke="#000000" stroke-width="0" stroke-linecap="square" stroke-linejoin="bevel" d="M66.6274 26.761L66.6339 27.1083L49.422 52.1129C46.6347 51.9854 43.8385 52.4756 41.1831 53.5681C40.0137 54.0451 38.919 54.6298 37.8902 55.3047L0.092051 39.748C0.092051 39.748 -0.782835 54.1374 2.86179 64.8603L29.5832 75.8865C30.9021 81.8832 35.0347 87.1413 41.1062 89.6692C45.8809 91.6532 51.2536 91.6609 56.0341 89.6907C60.8145 87.7205 64.6216 83.9295 66.612 79.1574C67.6891 76.5635 68.1881 73.8377 68.1155 71.1208L92.742 53.5241L93.3465 53.5351C108.086 53.5351 120.066 41.5197 120.066 26.761C120.062 19.6745 117.246 12.8715 112.239 7.8567C107.232 2.84191 100.433 0.0145444 93.3465 0C78.6142 -3.9048e-15 66.6274 12.0022 66.6274 26.761ZM62.4947 77.4296C59.2985 85.1013 50.4793 88.7438 42.8142 85.5498C39.2751 84.077 36.6086 81.3776 35.0677 78.1594L43.766 81.7645C45.562 82.5121 47.5236 82.7736 49.4528 82.5226C51.3819 82.2717 53.2113 81.517 54.7563 80.3348C56.3012 79.1526 57.5079 77.584 58.2544 75.7875C59.3849 73.0728 59.3916 70.0171 58.273 67.2974C57.1544 64.5777 54.9997 62.4109 52.2863 61.2772L43.2736 57.5512C46.7424 56.2323 50.686 56.1883 54.3746 57.7205C58.1115 59.2658 60.9692 62.1763 62.4991 65.8978C64.0291 69.6194 64.0203 73.7234 62.4771 77.4296M93.3487 44.5994C83.536 44.5994 75.5477 36.5979 75.5477 26.7654C75.5529 22.045 77.4304 17.5142 80.7655 14.1737C84.1007 10.8333 88.6284 8.94849 93.3487 8.93571C98.0699 8.94733 102.599 10.8316 105.935 14.1722C109.271 17.5128 111.149 22.0442 111.154 26.7654C111.15 31.4873 109.273 36.0198 105.936 39.3614C102.6 42.7029 98.0706 44.5878 93.3487 44.5994M80.01 26.7368C80.01 19.3376 86.0001 13.3387 93.3751 13.3387C100.75 13.3387 106.749 19.3398 106.749 26.7368C106.751 30.2848 105.342 33.6918 102.835 36.2025C100.328 38.7131 96.9231 40.127 93.3751 40.1304C89.8283 40.1252 86.425 38.7106 83.9195 36.2001C81.414 33.6897 80.0061 30.2836 80.0078 26.7368Z" sodipodi:nodetypes="ccccccccccccccccccccccccccccccccccccccccccccccc"/>
</svg>
